<?xml version="1.0" ?>
<!-- Uploaded to: SVG Repo, www.svgrepo.com, Generator: SVG Repo Mixer Tools -->
<svg width="800px" height="800px" viewBox="0 0 64 64" xmlns="http://www.w3.org/2000/svg">
<defs>
<style>.cls-1{fill:none;stroke:#000000;stroke-linejoin:round;stroke-width:2px;}</style>
</defs>
<title/>
<g data-name="Layer 6" id="Layer_6">
<rect class="cls-1" height="52" width="38" x="17" y="2"/>
<path class="cls-1" d="M27,6V8.59A3.41,3.41,0,0,1,26,11h0a3.41,3.41,0,0,1-2.41,1H21V44h2.59A3.41,3.41,0,0,1,26,45h0a3.41,3.41,0,0,1,1,2.41V50H45V47.41A3.41,3.41,0,0,1,46,45h0a3.41,3.41,0,0,1,2.41-1H51V12H48.41A3.41,3.41,0,0,1,46,11h0a3.41,3.41,0,0,1-1-2.41V6Z"/>
<polygon class="cls-1" points="25 34 47 34 36 14 25 34"/>
<polygon class="cls-1" points="25 22 47 22 36 42 25 22"/>
<circle class="cls-1" cx="36" cy="28" r="1"/>
<rect class="cls-1" height="52" width="8" x="9" y="2"/>
<path class="cls-1" d="M9,54v8H49a4,4,0,0,0,4-4V54"/>
<line class="cls-1" x1="9" x2="53" y1="58" y2="58"/>
</g>
</svg>